<mxfile host="65bd71144e">
    <diagram name="State-Diagram" id="state-example">
        <mxGraphModel dx="1200" dy="800" grid="1" gridSize="10" guides="1" tooltips="1" connect="1" arrows="1" fold="1" page="1" pageScale="1" pageWidth="850" pageHeight="1100" math="0" shadow="0">
            <root>
                <mxCell id="0"/>
                <mxCell id="1" parent="0"/>
                
                <!-- Initial State -->
                <mxCell id="initial" value="" style="ellipse;html=1;shape=startState;fillColor=#000000;strokeColor=#ff0000;" vertex="1" parent="1">
                    <mxGeometry x="100" y="80" width="30" height="30" as="geometry"/>
                </mxCell>
                
                <!-- States -->
                <mxCell id="state1" value="Idle" style="rounded=1;whiteSpace=wrap;html=1;" vertex="1" parent="1">
                    <mxGeometry x="200" y="70" width="100" height="50" as="geometry"/>
                </mxCell>
                
                <mxCell id="state2" value="Processing" style="rounded=1;whiteSpace=wrap;html=1;" vertex="1" parent="1">
                    <mxGeometry x="200" y="180" width="100" height="50" as="geometry"/>
                </mxCell>
                
                <mxCell id="state3" value="Waiting" style="rounded=1;whiteSpace=wrap;html=1;" vertex="1" parent="1">
                    <mxGeometry x="400" y="180" width="100" height="50" as="geometry"/>
                </mxCell>
                
                <mxCell id="state4" value="Complete" style="rounded=1;whiteSpace=wrap;html=1;" vertex="1" parent="1">
                    <mxGeometry x="200" y="290" width="100" height="50" as="geometry"/>
                </mxCell>
                
                <mxCell id="state5" value="Error" style="rounded=1;whiteSpace=wrap;html=1;fillColor=#f8cecc;strokeColor=#b85450;" vertex="1" parent="1">
                    <mxGeometry x="400" y="70" width="100" height="50" as="geometry"/>
                </mxCell>
                
                <!-- Final State -->
                <mxCell id="final" value="" style="ellipse;html=1;shape=endState;fillColor=#000000;strokeColor=#ff0000;" vertex="1" parent="1">
                    <mxGeometry x="235" y="390" width="30" height="30" as="geometry"/>
                </mxCell>
                
                <!-- Transitions -->
                <mxCell id="trans1" value="start" style="endArrow=block;html=1;rounded=0;" edge="1" parent="1" source="initial" target="state1">
                    <mxGeometry width="50" height="50" relative="1" as="geometry">
                        <mxPoint x="130" y="95" as="sourcePoint"/>
                        <mxPoint x="200" y="95" as="targetPoint"/>
                    </mxGeometry>
                </mxCell>
                
                <mxCell id="trans2" value="process" style="endArrow=block;html=1;rounded=0;" edge="1" parent="1" source="state1" target="state2">
                    <mxGeometry width="50" height="50" relative="1" as="geometry">
                        <mxPoint x="250" y="120" as="sourcePoint"/>
                        <mxPoint x="250" y="180" as="targetPoint"/>
                    </mxGeometry>
                </mxCell>
                
                <mxCell id="trans3" value="wait" style="endArrow=block;html=1;rounded=0;" edge="1" parent="1" source="state2" target="state3">
                    <mxGeometry width="50" height="50" relative="1" as="geometry">
                        <mxPoint x="300" y="205" as="sourcePoint"/>
                        <mxPoint x="400" y="205" as="targetPoint"/>
                    </mxGeometry>
                </mxCell>
                
                <mxCell id="trans4" value="resume" style="endArrow=block;html=1;rounded=0;" edge="1" parent="1" source="state3" target="state2">
                    <mxGeometry width="50" height="50" relative="1" as="geometry">
                        <mxPoint x="400" y="215" as="sourcePoint"/>
                        <mxPoint x="300" y="215" as="targetPoint"/>
                    </mxGeometry>
                </mxCell>
                
                <mxCell id="trans5" value="finish" style="endArrow=block;html=1;rounded=0;" edge="1" parent="1" source="state2" target="state4">
                    <mxGeometry width="50" height="50" relative="1" as="geometry">
                        <mxPoint x="250" y="230" as="sourcePoint"/>
                        <mxPoint x="250" y="290" as="targetPoint"/>
                    </mxGeometry>
                </mxCell>
                
                <mxCell id="trans6" value="error" style="endArrow=block;html=1;rounded=0;strokeColor=#b85450;" edge="1" parent="1" source="state1" target="state5">
                    <mxGeometry width="50" height="50" relative="1" as="geometry">
                        <mxPoint x="300" y="95" as="sourcePoint"/>
                        <mxPoint x="400" y="95" as="targetPoint"/>
                    </mxGeometry>
                </mxCell>
                
                <mxCell id="trans7" value="error" style="endArrow=block;html=1;rounded=0;strokeColor=#b85450;" edge="1" parent="1" source="state2" target="state5">
                    <mxGeometry width="50" height="50" relative="1" as="geometry">
                        <mxPoint x="300" y="180" as="sourcePoint"/>
                        <mxPoint x="400" y="120" as="targetPoint"/>
                    </mxGeometry>
                </mxCell>
                
                <mxCell id="trans8" value="end" style="endArrow=block;html=1;rounded=0;" edge="1" parent="1" source="state4" target="final">
                    <mxGeometry width="50" height="50" relative="1" as="geometry">
                        <mxPoint x="250" y="340" as="sourcePoint"/>
                        <mxPoint x="250" y="390" as="targetPoint"/>
                    </mxGeometry>
                </mxCell>
                
                <mxCell id="trans9" value="reset" style="endArrow=block;html=1;rounded=0;strokeColor=#b85450;" edge="1" parent="1" source="state5" target="state1">
                    <mxGeometry width="50" height="50" relative="1" as="geometry">
                        <mxPoint x="400" y="95" as="sourcePoint"/>
                        <mxPoint x="300" y="95" as="targetPoint"/>
                    </mxGeometry>
                </mxCell>
            </root>
        </mxGraphModel>
    </diagram>
</mxfile>